<svg width="33" height="33" viewBox="0 0 33 33" fill="none" xmlns="http://www.w3.org/2000/svg">
<path d="M16.5 16.3205C19.0068 16.3205 21.037 14.1038 21.037 11.3898C21.037 8.71731 19.0068 6.59381 16.5 6.59381C14.0139 6.59381 11.963 8.74839 11.963 11.4105C11.9733 14.1141 13.9932 16.3205 16.5 16.3205ZM16.5 14.5077C15.0705 14.5077 13.8586 13.1508 13.8586 11.4105C13.8586 9.71173 15.0602 8.40656 16.5 8.40656C17.9502 8.40656 19.1414 9.69101 19.1414 11.3898C19.1414 13.13 17.9398 14.5077 16.5 14.5077ZM16.5 17.5221C14.6873 17.5221 13.1024 17.9261 11.7869 18.589C12.2944 18.9826 12.7398 19.4591 13.1024 20.0081C14.0554 19.5938 15.1948 19.3348 16.5 19.3348C21.0578 19.3348 23.6163 22.287 23.6163 23.8719C23.6163 24.0583 23.5231 24.1412 23.2745 24.1412H14.4801C14.4697 24.7834 14.3869 25.3428 14.19 25.9539H22.9534C24.7454 25.9539 25.6052 25.3842 25.6052 24.1619C25.6052 21.3133 22.0522 17.5221 16.5 17.5221ZM7.67452 29.3412C10.5749 29.3412 13.0195 26.9173 13.0195 23.9962C13.0195 21.075 10.606 18.6615 7.67452 18.6615C4.75341 18.6615 2.33987 21.075 2.33987 23.9962C2.33987 26.9276 4.75341 29.3412 7.67452 29.3412ZM4.29764 23.9962C4.28728 23.5715 4.57732 23.2918 5.00202 23.2918H6.97014V21.334C6.97014 20.9093 7.24982 20.6193 7.67452 20.6193C8.10958 20.6193 8.38926 20.9093 8.38926 21.334V23.2918H10.3574C10.7717 23.2918 11.0618 23.5715 11.0618 23.9962C11.0618 24.4312 10.7717 24.7109 10.3574 24.7109H8.38926V26.679C8.38926 27.1037 8.10958 27.3834 7.67452 27.3834C7.24982 27.3834 6.97014 27.1037 6.97014 26.679V24.7109H5.00202C4.58768 24.7109 4.29764 24.4312 4.29764 23.9962Z" fill="white"/>
</svg>
