<svg width="25" height="25" viewBox="0 0 25 25" fill="none" xmlns="http://www.w3.org/2000/svg">
<g clip-path="url(#clip0_420_203)">
<path d="M6.45898 14.5508C6.74023 14.5068 7.02148 14.4805 7.31152 14.4805C7.60156 14.4805 7.88281 14.5068 8.18164 14.5508V7.13281C8.18164 6.32422 8.60352 5.86719 9.45605 5.86719H13.2002V10.6836C13.2002 11.9404 13.8242 12.5469 15.0723 12.5469H19.8096V20.1846C19.8096 21.002 19.3789 21.4502 18.5264 21.4502H12.9277C12.8223 22.0654 12.5938 22.6543 12.2773 23.1729H18.6758C20.5566 23.1729 21.5322 22.1797 21.5322 20.29V12.3184C21.5322 11.0967 21.374 10.5342 20.6094 9.76074L15.9951 5.06738C15.2568 4.32031 14.6504 4.14453 13.5518 4.14453H9.31543C7.43457 4.14453 6.45898 5.1377 6.45898 7.02734V14.5508ZM14.7207 10.5166V6.10449L19.5723 11.0352H15.2305C14.8701 11.0352 14.7207 10.877 14.7207 10.5166ZM7.32031 24.7725C9.78125 24.7725 11.8467 22.7246 11.8467 20.2461C11.8467 17.7676 9.79883 15.7285 7.32031 15.7285C4.8418 15.7285 2.79395 17.7764 2.79395 20.2461C2.79395 22.7334 4.8418 24.7725 7.32031 24.7725ZM7.32031 23.1201C6.95996 23.1201 6.72266 22.874 6.72266 22.5225V20.8525H5.05273C4.70117 20.8525 4.45508 20.6152 4.45508 20.2549C4.45508 19.8857 4.70117 19.6484 5.05273 19.6484H6.72266V17.9873C6.72266 17.6357 6.95996 17.3896 7.32031 17.3896C7.68066 17.3896 7.91797 17.627 7.91797 17.9873V19.6484H9.58789C9.94824 19.6484 10.1855 19.8857 10.1855 20.2549C10.1855 20.6152 9.94824 20.8525 9.58789 20.8525H7.91797V22.5225C7.91797 22.874 7.68066 23.1201 7.32031 23.1201Z" fill="#E7751D"/>
</g>
<defs>
<clipPath id="clip0_420_203">
<rect width="25" height="25" fill="white"/>
</clipPath>
</defs>
</svg>
