<svg width="35" height="36" viewBox="0 0 35 36" fill="none" xmlns="http://www.w3.org/2000/svg">
<path d="M21.7472 9.42188H25.1937V12.8684C25.1937 13.2188 25.4819 13.5126 25.8378 13.5126C26.1938 13.5126 26.4819 13.2188 26.4819 12.8684V9.42188H29.9285C30.2788 9.42188 30.5726 9.13372 30.5726 8.77776C30.5726 8.42181 30.2788 8.13365 29.9285 8.13365H26.4819V4.68708C26.4819 4.33677 26.1938 4.04297 25.8378 4.04297C25.4819 4.04297 25.1937 4.33677 25.1937 4.68708V8.13365H21.7472C21.3968 8.13365 21.103 8.42181 21.103 8.77776C21.103 9.13372 21.3968 9.42188 21.7472 9.42188Z" fill="white"/>
<path d="M21.5159 30.3559C22.6707 29.7923 22.9756 29.275 22.9756 28.0647V13.9387C22.9756 12.3589 22.2457 11.6106 20.7306 11.6106H19.8529V11.3611C19.8529 10.3818 19.354 9.85522 18.4671 9.85522C18.1715 9.85522 17.8204 9.92913 17.4139 10.0677C14.6238 10.9639 12.0739 11.5644 8.82192 11.5644H8.11978C7.05733 11.5644 6.45682 12.1741 6.45682 13.1442V28.9978C6.45682 29.7739 6.64159 30.245 7.36221 30.5961C8.95127 31.3075 11.3164 31.7602 13.7739 31.7694C16.4531 31.7602 19.4372 31.3537 21.5159 30.3559ZM8.19369 28.1663V13.68C8.19369 13.4306 8.32303 13.2828 8.56324 13.2828H9.0067C12.1294 13.2828 15.1042 12.6361 17.6449 11.8508C17.9405 11.7492 18.1253 11.8323 18.1253 12.1095V25.7088C18.1253 26.1615 18.0606 26.3555 17.6264 26.6419C15.7787 27.9354 12.5821 28.7022 8.51705 28.4989C8.28608 28.4897 8.19369 28.388 8.19369 28.1663ZM18.9568 27.8152C19.6589 27.2794 19.8529 26.8914 19.8529 26.0322V13.3475H20.6844C21.0632 13.3475 21.2387 13.5415 21.2387 13.9664V27.8799C21.2387 28.425 21.1463 28.656 20.6197 28.8777C18.8274 29.663 16.1852 30.1619 13.7739 30.1711C12.8685 30.1711 11.9908 30.1434 11.1039 30.0603C14.3744 29.8847 17.4231 28.9701 18.9568 27.8152ZM9.97676 15.6571V18.7059C9.97676 18.8445 10.0876 18.9184 10.1985 18.9184C12.3326 18.9184 14.5222 18.5396 16.1852 17.8744C16.2683 17.8375 16.3145 17.7543 16.3145 17.6712V14.5115C16.3145 14.299 16.1205 14.2528 16.0189 14.2898C14.1065 15.0012 12.2495 15.3338 10.1985 15.4169C10.0691 15.4262 9.97676 15.5278 9.97676 15.6571Z" fill="white"/>
</svg>
