<svg width="16" height="16" viewBox="0 0 16 16" fill="none" xmlns="http://www.w3.org/2000/svg">
<g clip-path="url(#clip0_564_708)">
<path d="M8 15C6.14348 15 4.36301 14.2625 3.05025 12.9497C1.7375 11.637 1 9.85652 1 8C1 6.14348 1.7375 4.36301 3.05025 3.05025C4.36301 1.7375 6.14348 1 8 1C9.85652 1 11.637 1.7375 12.9497 3.05025C14.2625 4.36301 15 6.14348 15 8C15 9.85652 14.2625 11.637 12.9497 12.9497C11.637 14.2625 9.85652 15 8 15ZM8 16C10.1217 16 12.1566 15.1571 13.6569 13.6569C15.1571 12.1566 16 10.1217 16 8C16 5.87827 15.1571 3.84344 13.6569 2.34315C12.1566 0.842855 10.1217 0 8 0C5.87827 0 3.84344 0.842855 2.34315 2.34315C0.842855 3.84344 0 5.87827 0 8C0 10.1217 0.842855 12.1566 2.34315 13.6569C3.84344 15.1571 5.87827 16 8 16V16Z" fill="#FFC72C"/>
<path d="M10.97 4.97004C10.9629 4.97694 10.9562 4.98429 10.95 4.99204L7.477 9.41704L5.384 7.32304C5.24183 7.19056 5.05378 7.11843 4.85948 7.12186C4.66518 7.12529 4.47979 7.204 4.34238 7.34141C4.20497 7.47883 4.12626 7.66421 4.12283 7.85851C4.1194 8.05281 4.19152 8.24086 4.324 8.38304L6.97 11.03C7.04128 11.1012 7.12617 11.1573 7.21959 11.1949C7.31301 11.2325 7.41305 11.251 7.51375 11.2491C7.61445 11.2472 7.71374 11.2251 7.8057 11.184C7.89766 11.143 7.98041 11.0838 8.049 11.01L12.041 6.02004C12.1769 5.87737 12.2513 5.68693 12.2479 5.4899C12.2445 5.29288 12.1638 5.10508 12.0231 4.96713C11.8823 4.82918 11.693 4.75214 11.4959 4.75269C11.2989 4.75323 11.11 4.83131 10.97 4.97004V4.97004Z" fill="#FFC72C"/>
</g>
<defs>
<clipPath id="clip0_564_708">
<rect width="16" height="16" fill="white"/>
</clipPath>
</defs>
</svg>
