<svg width="45" height="45" viewBox="0 0 45 45" fill="none" xmlns="http://www.w3.org/2000/svg">
<path d="M22.5 36.5358C30.4808 36.5358 37.0914 29.9393 37.0914 21.9444C37.0914 13.9636 30.4808 7.35297 22.4859 7.35297C14.5051 7.35297 7.9086 13.9636 7.9086 21.9444C7.9086 29.9393 14.5192 36.5358 22.5 36.5358ZM22.5 33.6684C16.0024 33.6684 10.7902 28.442 10.7902 21.9444C10.7902 15.4468 15.9883 10.2345 22.4859 10.2345C28.9835 10.2345 34.2099 15.4468 34.224 21.9444C34.224 28.442 28.9976 33.6684 22.5 33.6684ZM15.9035 18.6532C16.5815 18.6532 17.1465 18.0882 17.1465 17.4102C17.1465 16.718 16.5956 16.1671 15.9035 16.1671C15.2114 16.1671 14.6605 16.718 14.6605 17.4102C14.6605 18.1023 15.2114 18.6532 15.9035 18.6532ZM19.3077 18.3142H29.3931C29.9017 18.3142 30.2972 17.9187 30.2972 17.4102C30.2972 16.9017 29.9017 16.5061 29.3931 16.5061H19.3077C18.7992 16.5061 18.4037 16.9017 18.4037 17.4102C18.4037 17.9046 18.8133 18.3142 19.3077 18.3142ZM15.9035 23.2015C16.5815 23.2015 17.1465 22.6224 17.1465 21.9444C17.1465 21.2664 16.5815 20.7014 15.9035 20.7014C15.2114 20.7014 14.6605 21.2664 14.6605 21.9444C14.6605 22.6365 15.2114 23.2015 15.9035 23.2015ZM19.3077 22.8484H29.3931C29.9017 22.8484 30.2972 22.467 30.2972 21.9444C30.2972 21.4359 29.9017 21.0545 29.3931 21.0545H19.3077C18.8133 21.0545 18.4037 21.45 18.4037 21.9444C18.4037 22.4529 18.8133 22.8484 19.3077 22.8484ZM15.9035 27.7357C16.5956 27.7357 17.1465 27.1849 17.1465 26.4927C17.1465 25.8147 16.5815 25.2497 15.9035 25.2497C15.2114 25.2497 14.6605 25.8006 14.6605 26.4927C14.6605 27.1849 15.2114 27.7357 15.9035 27.7357ZM19.3077 27.3967H29.3931C29.9017 27.3967 30.2972 27.0012 30.2972 26.4927C30.2972 25.9842 29.9017 25.5887 29.3931 25.5887H19.3077C18.8133 25.5887 18.4037 25.9983 18.4037 26.4927C18.4037 27.0012 18.7992 27.3967 19.3077 27.3967Z" fill="white"/>
</svg>
