<svg width="18" height="18" viewBox="0 0 32 32" fill="none" xmlns="http://www.w3.org/2000/svg">
<g clip-path="url(#clip0_591_488)">
<path d="M31.47 16.11C30.4609 15.4392 29.2426 15.1576 28.0415 15.3176C26.8404 15.4776 25.7382 16.0684 24.94 16.98L21.74 20.63C21.46 19.862 20.9515 19.1982 20.2828 18.728C19.6141 18.2578 18.8174 18.0037 18 18H17.07C16.5678 17.9992 16.0772 17.8496 15.66 17.57C13.8574 16.3711 11.6956 15.8325 9.54122 16.0458C7.38684 16.259 5.37255 17.2109 3.84 18.74L0.290002 22.29C0.101699 22.4783 -0.00408936 22.7337 -0.00408936 23C-0.00408936 23.2663 0.101699 23.5217 0.290002 23.71C0.478306 23.8983 0.733701 24.0041 1 24.0041C1.2663 24.0041 1.5217 23.8983 1.71 23.71L5.26 20.16C6.46227 18.9544 8.04582 18.2036 9.74019 18.0358C11.4346 17.868 13.1346 18.2936 14.55 19.24C15.296 19.7378 16.1732 20.0023 17.07 20H18C18.5304 20 19.0391 20.2108 19.4142 20.5858C19.7893 20.9609 20 21.4696 20 22H13C12.7348 22 12.4804 22.1054 12.2929 22.2929C12.1054 22.4805 12 22.7348 12 23C12 23.2653 12.1054 23.5196 12.2929 23.7071C12.4804 23.8947 12.7348 24 13 24H21C21.1411 23.9972 21.2799 23.9646 21.4075 23.9042C21.535 23.8439 21.6483 23.7573 21.74 23.65L26.43 18.29C26.7964 17.8747 27.2706 17.5689 27.8001 17.4065C28.3296 17.2442 28.8938 17.2315 29.43 17.37L22.4 26.8C22.1206 27.1726 21.7582 27.475 21.3416 27.6833C20.9251 27.8916 20.4657 28 20 28H11.66C11.003 27.9989 10.3521 28.1272 9.7447 28.3777C9.13728 28.6282 8.58519 28.996 8.12 29.46L7.29 30.29C7.19627 30.383 7.12188 30.4936 7.07111 30.6155C7.02034 30.7373 6.9942 30.868 6.9942 31C6.9942 31.1321 7.02034 31.2628 7.07111 31.3846C7.12188 31.5065 7.19627 31.6171 7.29 31.71C7.38297 31.8038 7.49357 31.8782 7.61543 31.9289C7.73728 31.9797 7.86799 32.0058 8 32.0058C8.13201 32.0058 8.26272 31.9797 8.38458 31.9289C8.50644 31.8782 8.61704 31.8038 8.71 31.71L9.54 30.88C10.1021 30.3173 10.8646 30.0007 11.66 30H20C20.7762 30 21.5418 29.8193 22.2361 29.4722C22.9303 29.125 23.5343 28.621 24 28L31.8 17.6C31.9505 17.3624 32.0041 17.0761 31.95 16.8C31.8819 16.5181 31.7106 16.2719 31.47 16.11Z" fill="white"/>
<path d="M22 14H18C17.7348 14 17.4804 13.8946 17.2929 13.7071C17.1054 13.5196 17 13.2652 17 13V10H14C13.7348 10 13.4804 9.89464 13.2929 9.70711C13.1054 9.51957 13 9.26522 13 9V5C13 4.73478 13.1054 4.48043 13.2929 4.29289C13.4804 4.10536 13.7348 4 14 4H17V1C17 0.734784 17.1054 0.48043 17.2929 0.292893C17.4804 0.105357 17.7348 0 18 0L22 0C22.2652 0 22.5196 0.105357 22.7071 0.292893C22.8946 0.48043 23 0.734784 23 1V4H26C26.2652 4 26.5196 4.10536 26.7071 4.29289C26.8946 4.48043 27 4.73478 27 5V9C27 9.26522 26.8946 9.51957 26.7071 9.70711C26.5196 9.89464 26.2652 10 26 10H23V13C23 13.2652 22.8946 13.5196 22.7071 13.7071C22.5196 13.8946 22.2652 14 22 14ZM19 12H21V9C21 8.73478 21.1054 8.48043 21.2929 8.29289C21.4804 8.10536 21.7348 8 22 8H25V6H22C21.7348 6 21.4804 5.89464 21.2929 5.70711C21.1054 5.51957 21 5.26522 21 5V2H19V5C19 5.26522 18.8946 5.51957 18.7071 5.70711C18.5196 5.89464 18.2652 6 18 6H15V8H18C18.2652 8 18.5196 8.10536 18.7071 8.29289C18.8946 8.48043 19 8.73478 19 9V12Z" fill="white"/>
</g>
<defs>
<clipPath id="clip0_591_488">
<rect width="32" height="32" fill="white"/>
</clipPath>
</defs>
</svg>
