<svg width="45" height="45" viewBox="0 0 45 45" fill="none" xmlns="http://www.w3.org/2000/svg">
<path d="M22.4859 36.5499C30.4949 36.5499 37.1055 29.9393 37.1055 21.9444C37.1055 13.9495 30.4808 7.33887 22.4718 7.33887C14.4768 7.33887 7.88034 13.9495 7.88034 21.9444C7.88034 29.9393 14.491 36.5499 22.4859 36.5499ZM22.4859 33.6401C16.0024 33.6401 10.8184 28.4279 10.8184 21.9444C10.8184 15.4609 16.0024 10.2628 22.4718 10.2628C28.9553 10.2628 34.1675 15.4609 34.1816 21.9444C34.1957 28.4279 28.9694 33.6401 22.4859 33.6401ZM26.0031 21.2523C27.458 21.2523 28.6869 19.9386 28.6869 18.2718C28.6869 16.6333 27.458 15.3762 26.0031 15.3762C24.534 15.3762 23.3051 16.6616 23.3051 18.2718C23.3193 19.9386 24.534 21.2523 26.0031 21.2523ZM18.2624 21.3935C19.5337 21.3935 20.6213 20.2635 20.6213 18.7945C20.6213 17.3819 19.5337 16.2802 18.2624 16.2802C17.0053 16.2802 15.9176 17.3961 15.9176 18.8086C15.9176 20.2635 16.9911 21.3935 18.2624 21.3935ZM14.5757 27.4674H19.5902C18.8981 26.4504 19.6749 24.4305 21.1722 23.2581C20.4236 22.7778 19.4772 22.4105 18.2624 22.4105C15.282 22.4105 13.3468 24.6141 13.3468 26.4221C13.3468 27.086 13.6717 27.4674 14.5757 27.4674ZM21.822 27.4674H30.1559C31.2577 27.4674 31.6391 27.1284 31.6391 26.5069C31.6391 24.7977 29.4638 22.4388 26.0031 22.4388C22.5283 22.4388 20.3388 24.7977 20.3388 26.5069C20.3388 27.1284 20.7343 27.4674 21.822 27.4674Z" fill="white"/>
</svg>
