<svg width="19" height="19" viewBox="0 0 19 19" fill="none" xmlns="http://www.w3.org/2000/svg">
<path d="M0 3C0 1.34315 1.34315 0 3 0H16C17.6569 0 19 1.34315 19 3V16C19 17.6569 17.6569 19 16 19H3C1.34315 19 0 17.6569 0 16V3Z" fill="#B31B1B"/>
<path d="M11.8276 3.68916L9.95922 1.82083L8.09089 3.68916H11.8276ZM8.22547 14.0362H9.68214L6.12756 4.96375H4.82922L1.26672 14.0362H2.72339L3.45172 12.0967H7.49714L8.22547 14.0362ZM3.93464 10.7983L5.47047 6.6975L7.00631 10.7983H3.93464ZM9.95922 17.1792L11.8038 15.3346H8.11464L9.95922 17.1792ZM17.1476 5.96916V4.97166H10.5767V6.23833H15.2317L10.5451 13.015V14.0362H17.298V12.7775H12.453L17.1476 5.96916Z" fill="white"/>
</svg>
