<svg width="700" height="127" xmlns="http://www.w3.org/2000/svg" stroke-miterlimit="10" stroke-linecap="square" fill="none" version="1.1">
 <clipPath id="p.0">
  <path id="svg_1" clip-rule="nonzero" d="m0,0l960,0l0,720l-960,0l0,-720z"/>
 </clipPath>

 <g>
  <title>Layer 1</title>
  <g id="svg_2" clip-path="url(#p.0)" stroke="null">
   <path id="svg_5" fill-rule="nonzero" d="m56,21.54647l21.59375,0l0,61.20312q0,12.59375 -5.70313,18.29688q-5.6875,5.70312 -18.29687,5.70312l-27.59375,0q-12.60938,0 -18.3125,-5.70312q-5.6875,-5.70313 -5.6875,-18.29688l0,-61.20312l21.59375,0l0,61.20312q0,7.20313 7.20312,7.20313l18,0q7.20313,0 7.20313,-7.20313l0,-61.20312zm70.20305,36.59375q-6.35939,0 -14.40627,2.40625l0,28.79687l18.00002,0q4.79687,0 4.79687,-4.79687l0,-22.20313q0,-1.79687 -1.20312,-3q-1.1875,-1.20312 -3,-1.20312l-4.1875,0zm-14.40627,47.40625l0,20.40625l-21,0l0,-84l18.59375,0l1.20313,6q5.64062,-3.71875 11.57812,-5.45313q5.93752,-1.75 10.03127,-1.75l5.39062,0q8.15625,0 13.07813,4.92188q4.92187,4.92187 4.92187,13.07812l0,27.59375q0,9 -5.10937,14.10938q-5.09375,5.09375 -14.09375,5.09375l-24.59377,0zm96.59996,0l-21.59378,0l0,-67.20313l-25.20312,0l0,-16.79687l72.00003,0l0,16.79687l-25.20313,0l0,67.20313zm91.19678,-18q0,9 -5.10937,14.10937q-5.09375,5.09375 -14.09375,5.09375l-27.59375,0q-9,0 -14.10938,-5.09375q-5.09375,-5.10937 -5.09375,-14.10937l0,-27.59375q0,-9 5.09375,-14.09375q5.10938,-5.10938 14.10938,-5.10938l27.59375,0q9,0 14.09375,5.10938q5.10937,5.09375 5.10937,14.09375l0,27.59375zm-21,-25.79688q0,-4.79687 -4.79687,-4.79687l-14.40625,0q-4.79688,0 -4.79688,4.79687l0,24q0,4.79688 4.79688,4.79688l14.40625,0q4.79687,0 4.79687,-4.79688l0,-24z" fill="#ff9900" stroke="null"/>
   <path id="svg_6" fill-rule="nonzero" d="m384.80284,105.54647l-21.60934,0l0,-34.20313l-30,0l0,34.20313l-21.59375,0l0,-84l21.59375,0l0,33l30,0l0,-33l21.60934,0l0,84zm37.78741,-49.79688q-4.79687,0 -4.79687,4.79688l0,6.59375l20.40625,0l0,-6.59375q0,-4.79688 -4.79688,-4.79688l-10.8125,0zm34.20313,48.59375q-23.15625,2.40625 -42,2.40625q-8.15625,0 -13.07813,-4.92187q-4.92187,-4.92188 -4.92187,-13.07813l0,-28.79687q0,-9 5.09375,-14.09375q5.10937,-5.10938 14.10937,-5.10938l24,0q9,0 14.09375,5.10938q5.10938,5.09375 5.10938,14.09375l0,22.1875l-41.40625,0l0,4.8125q0,1.79687 1.20312,3q1.20313,1.1875 3,1.1875q11.875,0 34.79688,-1.79688l0,15zm38.40625,-14.39062q6.35937,0 14.39062,-2.40625l0,-7.20313l-17.39062,0q-1.79688,0 -3,1.20313q-1.20313,1.20312 -1.20313,3l0,1.20312q0,1.79688 1.20313,3q1.20312,1.20313 3,1.20313l3,0zm-22.20313,-46.8125q21.95313,-2.39063 39.59375,-2.39063q8.17188,0 13.07813,4.92188q4.92187,4.92187 4.92187,13.07812l0,46.79688l-18.59375,0l-1.20312,-6q-5.64063,3.71875 -11.57813,5.46875q-5.9375,1.73437 -10.01562,1.73437l-4.20313,0q-8.15625,0 -13.07812,-4.92187q-4.92188,-4.92188 -4.92188,-13.07813l0,-5.40625q0,-8.15625 4.92188,-13.07812q4.92187,-4.92188 13.07812,-4.92188l24.59375,0l0,-4.79687q0,-1.79688 -1.20312,-3q-1.1875,-1.20313 -2.98438,-1.20313q-7.8125,0 -17.23437,0.71875q-9.40625,0.71875 -15.17188,1.07813l0,-15zm100.80615,62.40625q-8.04687,1.20312 -15.3125,1.20312q-7.25,0 -12.17187,-4.92187q-4.92188,-4.92188 -4.92188,-13.07813l0,-67.20312l21,0l0,64.20312q0,1.79688 1.20313,3q1.20312,1.20313 3,1.20313l7.20312,0l0,15.59375zm50.39997,0q-11.64063,1.20312 -22.8125,1.20312q-8.15625,0 -13.07813,-4.92187q-4.92187,-4.92188 -4.92187,-13.07813l0,-30.60937l-7.1875,0l0,-16.1875l7.1875,0l2.40625,-14.40625l18.59375,0l0,14.40625l15,0l0,16.1875l-15,0l0,27.60937q0,1.79688 1.20312,3q1.20313,1.20313 3,1.20313l15.60938,0l0,15.59375zm29.39374,-62.40625q11.64062,-2.39063 20.40625,-2.39063l5.39062,0q8.15625,0 13.07813,4.92188q4.92187,4.92187 4.92187,13.07812l0,46.79688l-21,0l0,-44.40625q0,-1.79688 -1.20312,-2.98438q-1.1875,-1.20312 -3,-1.20312l-4.1875,0q-4.5625,0 -8.34375,0.48437q-3.78125,0.46875 -6.0625,0.70313l0,47.40625l-21,0l0,-84l21,0l0,21.59375z" fill="#b31b1b" stroke="null"/>
   <path id="svg_7" fill-rule="evenodd" d="m48.92699,27.74805l18.25197,-27.74805l18.25197,27.74805l-36.50394,0z" fill="#ff9900" stroke="null"/>
  </g>
 </g>
</svg>